<svg version="1.1" xmlns="http://www.w3.org/2000/svg" xmlns:xlink="http://www.w3.org/1999/xlink" width="143.55769" height="133.59236" viewBox="0,0,143.55769,133.59236"><g transform="translate(-248.22121,-113.20385)"><g data-paper-data="{&quot;isPaintingLayer&quot;:true}" fill-rule="nonzero" stroke-linecap="butt" stroke-linejoin="miter" stroke-miterlimit="10" stroke-dasharray="" stroke-dashoffset="0" style="mix-blend-mode: normal"><path d="M248.22121,122.76209c0,-5.27887 4.27936,-9.55823 9.55823,-9.55823h124.44123c5.27889,0 9.55823,4.27936 9.55823,9.55823v114.15375h-143.55769z" fill="#151515" stroke="none" stroke-width="0"/><path d="M255.098,129.58094c0,-5.03287 4.07994,-9.11281 9.11281,-9.11281h110.9457c5.03289,0 9.1128,4.07994 9.1128,9.11281v84.44942h-129.17129z" data-paper-data="{&quot;index&quot;:null}" fill="#0c0c0c" stroke="none" stroke-width="0"/><path d="M248.22121,203.39405h143.55769v33.84393c0,5.27887 -4.27934,9.55823 -9.55823,9.55823h-124.44123c-5.27887,0 -9.55823,-4.27936 -9.55823,-9.55823z" data-paper-data="{&quot;index&quot;:null}" fill="#0c0c0c" stroke="none" stroke-width="0"/><text transform="translate(253.5288,233.2005) scale(0.70897,0.70897)" font-size="40" xml:space="preserve" fill="#ffffff" fill-rule="nonzero" stroke="#ffffff" stroke-width="1" stroke-linecap="butt" stroke-linejoin="miter" stroke-miterlimit="10" stroke-dasharray="" stroke-dashoffset="0" font-family="Sans Serif" font-weight="normal" text-anchor="start" style="mix-blend-mode: normal"><tspan x="0" dy="0">Character</tspan></text></g></g></svg>