<svg version="1.1" xmlns="http://www.w3.org/2000/svg" xmlns:xlink="http://www.w3.org/1999/xlink" width="730" height="456.57143" viewBox="0,0,730,456.57143"><g transform="translate(35.5,31.61139)"><g data-paper-data="{&quot;isPaintingLayer&quot;:true}" fill-rule="nonzero" stroke-linecap="butt" stroke-linejoin="miter" stroke-miterlimit="10" stroke-dasharray="" stroke-dashoffset="0" style="mix-blend-mode: normal"><path d="M-33,387.65612v-349.82885h725v349.82885z" fill="none" stroke="#2c2c2c" stroke-width="5"/><path d="M339.44781,23.06021v-37.23404c0,0 69.07198,0 89.88303,0c5.82732,0 11.18856,5.28082 11.18856,9.17095c0,3.2544 0,9.81445 0,15.77402c0,6.50189 -4.77098,12.28907 -10.08804,12.28907c-20.07466,0 -90.98354,0 -90.98354,0z" fill="#2b2b2b" stroke="none" stroke-width="0"/><path d="M344.22627,21.84213v-34.75355c0,0 64.47048,0 83.89512,0c5.43911,0 10.44319,4.92902 10.44319,8.55999c0,3.0376 0,9.16062 0,14.72317c0,6.06874 -4.45314,11.47039 -9.41599,11.47039c-18.73731,0 -84.92232,0 -84.92232,0z" fill="#252525" stroke="none" stroke-width="0"/><path d="M-22.99462,422.46004v-50.69124h692.78034v50.69124z" fill="#2c2c2c" stroke="#2c2c2c" stroke-width="5"/><path d="M-20.15438,36.67816v-65.78955h674.34716v65.78955z" fill="#2c2c2c" stroke="#2c2c2c" stroke-width="5"/></g></g></svg>