<svg version="1.1" xmlns="http://www.w3.org/2000/svg" xmlns:xlink="http://www.w3.org/1999/xlink" width="119.35774" height="37.23404" viewBox="0,0,119.35774,37.23404"><g transform="translate(-305.46901,-149.05379)"><g data-paper-data="{&quot;isPaintingLayer&quot;:true}" fill-rule="nonzero" stroke="none" stroke-width="0" stroke-linecap="butt" stroke-linejoin="miter" stroke-miterlimit="10" stroke-dasharray="" stroke-dashoffset="0" style="mix-blend-mode: normal"><path d="M323.75516,186.28783v-37.23404c0,0 69.07198,0 89.88303,0c5.82732,0 11.18856,5.28082 11.18856,9.17095c0,3.2544 0,9.81445 0,15.77402c0,6.50189 -4.77098,12.28907 -10.08804,12.28907c-20.07466,0 -90.98354,0 -90.98354,0z" fill="#2b2b2b"/><path d="M333.15593,184.14529v-32.71017c0,0 60.67985,0 78.96239,0c5.11931,0 9.82917,4.63921 9.82917,8.05669c0,2.859 0,8.62201 0,13.8575c0,5.71192 -4.19131,10.79597 -8.86236,10.79597c-17.63562,0 -79.92919,0 -79.92919,0z" fill="#252525"/><path d="M305.46901,183.46006v-26.71722h26.71722v26.71722z" fill="#513687"/><path d="M311.95245,177.5251v-25.11413h25.11413v25.11413z" fill="#9966ff"/></g></g></svg>