<svg version="1.1" xmlns="http://www.w3.org/2000/svg" xmlns:xlink="http://www.w3.org/1999/xlink" width="209.95938" height="195.15902" viewBox="0,0,209.95938,195.15902"><g transform="translate(-237.09257,-87.24648)"><g data-paper-data="{&quot;isPaintingLayer&quot;:true}" fill-rule="nonzero" stroke="none" stroke-linecap="butt" stroke-linejoin="miter" stroke-miterlimit="10" stroke-dasharray="" stroke-dashoffset="0" style="mix-blend-mode: normal"><path d="M237.09258,98.28662c0,-6.0973 4.94283,-11.04014 11.04014,-11.04014h187.87909c6.09733,0 11.04014,4.94283 11.04014,11.04014v172.70667h-209.95936z" fill="#151515" stroke-width="0"/><path d="M245.03556,106.16268c0,-5.81316 4.71249,-10.52566 10.52566,-10.52566h172.29121c5.81319,0 10.52565,4.71249 10.52565,10.52566v138.39698h-193.34249z" data-paper-data="{&quot;index&quot;:null}" fill="#0c0c0c" stroke-width="0"/><path d="M237.09258,232.27429h209.95936v39.09108c0,6.0973 -4.94281,11.04014 -11.04014,11.04014h-187.87909c-6.0973,0 -11.04014,-4.94283 -11.04014,-11.04014z" data-paper-data="{&quot;index&quot;:null}" fill="#151515" stroke-width="0"/><path d="M283.08809,273.7408v-34.14839c0,0 107.49238,0 126.57878,0c5.3444,0 10.26135,4.84319 10.26135,8.41093c0,2.9847 0,9.00111 0,14.4668c0,5.96307 -4.37561,11.27065 -9.25203,11.27065c-18.41103,0 -127.58808,0 -127.58808,0z" fill="#2b2b2b" stroke-width="0"/><path d="M291.7098,271.77581v-29.99941c0,0 99.79572,0 116.56315,0c4.69506,0 9.01461,4.25475 9.01461,7.38901c0,2.62207 0,7.90749 0,12.70911c0,5.23856 -3.84397,9.90129 -8.12792,9.90129c-16.17413,0 -117.44984,0 -117.44984,0z" fill="#252525" stroke-width="0"/><path d="M259.29079,276.87956v-34.41941h34.41941v34.41941z" fill="#513687" stroke-width="0"/><path d="M267.64331,269.23364v-32.35419h32.35418v32.35419z" fill="#9966ff" stroke-width="0"/><text transform="translate(334.83736,263.77553) scale(0.5,0.5)" font-size="40" xml:space="preserve" fill="#ffffff" fill-rule="nonzero" stroke="none" stroke-width="1" stroke-linecap="butt" stroke-linejoin="miter" stroke-miterlimit="10" stroke-dasharray="" stroke-dashoffset="0" font-family="Sans Serif" font-weight="normal" text-anchor="start" style="mix-blend-mode: normal"><tspan x="0" dy="0">1</tspan></text></g></g></svg>