<svg version="1.1" xmlns="http://www.w3.org/2000/svg" xmlns:xlink="http://www.w3.org/1999/xlink" width="69.70149" height="74.7819" viewBox="0,0,69.70149,74.7819"><g transform="translate(-285.1673,-142.60905)"><g data-paper-data="{&quot;isPaintingLayer&quot;:true}" fill-rule="nonzero" stroke="none" stroke-width="0" stroke-linecap="butt" stroke-miterlimit="10" stroke-dasharray="" stroke-dashoffset="0" style="mix-blend-mode: normal"><path d="M290.3515,217.39095v-74.7819h59.46483l5.05246,0.01147l-0.0734,4.96759v64.82378c0,2.74986 -2.2292,4.97906 -4.97906,4.97906z" data-paper-data="{&quot;index&quot;:null}" fill="#151515" stroke-linejoin="miter"/><path d="M287.39134,217.39095c-1.2077,0 -2.18674,-2.2292 -2.18674,-4.97906v-64.82378c0,-2.74987 -0.0373,-4.97906 -0.0373,-4.97906h9.96688v74.7819z" data-paper-data="{&quot;index&quot;:null}" fill="#000000" stroke-linejoin="miter"/><path d="M320.03941,164v10c0,1.1046 -0.8954,2 -2,2h-10c-1.10457,0 -2,-0.8954 -2,-2v-10c0,-1.10457 0.89543,-2 2,-2h10c1.1046,0 2,0.89543 2,2z" fill="#ffffff" stroke-linejoin="round"/><path d="M320.03941,186v10c0,1.1046 -0.8954,2 -2,2h-10c-1.10457,0 -2,-0.8954 -2,-2v-10c0,-1.1046 0.89543,-2 2,-2h10c1.1046,0 2,0.8954 2,2z" fill="#ffffff" stroke-linejoin="round"/><path d="M342.03941,164v10c0,1.1046 -0.8954,2 -2,2h-10c-1.1046,0 -2,-0.8954 -2,-2v-10c0,-1.10457 0.8954,-2 2,-2h10c1.1046,0 2,0.89543 2,2z" fill="#ffffff" stroke-linejoin="round"/><path d="M342.03941,186v10c0,1.1046 -0.8954,2 -2,2h-10c-1.1046,0 -2,-0.8954 -2,-2v-10c0,-1.1046 0.8954,-2 2,-2h10c1.1046,0 2,0.8954 2,2z" fill="#ffffff" stroke-linejoin="round"/></g></g></svg>