<svg version="1.1" xmlns="http://www.w3.org/2000/svg" xmlns:xlink="http://www.w3.org/1999/xlink" width="69.70149" height="74.7819" viewBox="0,0,69.70149,74.7819"><g transform="translate(-285.1673,-142.60905)"><g data-paper-data="{&quot;isPaintingLayer&quot;:true}" fill-rule="nonzero" stroke="none" stroke-linecap="butt" stroke-linejoin="miter" stroke-miterlimit="10" stroke-dasharray="" stroke-dashoffset="0" style="mix-blend-mode: normal"><path d="M349.81633,142.60905c2.74986,0 4.97906,2.2292 4.97906,4.97906v64.82378l0.0734,4.96759l-5.05246,0.01147h-59.46483v-74.7819z" fill="#151515" stroke-width="0"/><path d="M295.13418,142.60905v74.7819h-9.96688c0,0 0.0373,-2.22919 0.0373,-4.97906v-64.82378c0,-2.74986 0.97904,-4.97906 2.18674,-4.97906z" data-paper-data="{&quot;index&quot;:null}" fill="#000000" stroke-width="0"/><path d="M304.12792,189.35042c0,-2.57427 2.63655,-4.29737 6.22808,-5.41843v-14.69826c0.03085,-2.72365 1.91717,-5.07433 4.56949,-5.69435c2.65232,-0.62003 5.38523,0.65083 6.62029,3.07856c0.28911,0.57179 0.87477,0.93282 1.5155,0.93421h3.65381c0.64072,-0.00139 1.22639,-0.36242 1.5155,-0.93421c1.23506,-2.42773 3.96797,-3.69859 6.62029,-3.07856c2.65232,0.62003 4.53864,2.9707 4.56949,5.69435v14.69826c3.59152,1.12105 6.22808,2.84416 6.22808,5.41843c0,5.72983 -13.0582,7.26609 -20.76026,7.26609c-7.70206,0 -20.76026,-1.53626 -20.76026,-7.26609zM314.50805,182.95626c6.87194,-1.15445 13.88832,-1.15445 20.76026,0v-13.72253c0,-0.92871 -0.75287,-1.68158 -1.68158,-1.68158c-0.68862,-0.03996 -1.33738,0.32497 -1.66082,0.93421c-0.98898,1.97143 -3.00524,3.21652 -5.21082,3.21784h-3.65381c-2.20558,-0.00132 -4.22185,-1.24641 -5.21082,-3.21784c-0.28911,-0.57179 -0.87477,-0.93282 -1.5155,-0.93421c-0.46757,-0.02834 -0.92653,0.13491 -1.27118,0.45215c-0.34465,0.31724 -0.54529,0.76112 -0.55572,1.22943zM308.40454,189.35042c1.12105,1.03801 6.62252,3.11404 16.48364,3.11404c9.86112,0 15.36259,-2.07603 16.48364,-3.11404c-1.12105,-1.03801 -6.62252,-3.11404 -16.48364,-3.11404c-9.86112,0 -15.36259,2.07603 -16.48364,3.11404z" fill="#ffffff" stroke-width="1"/></g></g></svg>