<svg version="1.1" xmlns="http://www.w3.org/2000/svg" xmlns:xlink="http://www.w3.org/1999/xlink" width="66.875" height="61.5" viewBox="0,0,66.875,61.5"><g transform="translate(-287.3125,-149.5)"><g data-paper-data="{&quot;isPaintingLayer&quot;:true}" fill-rule="nonzero" stroke="none" stroke-linecap="butt" stroke-linejoin="miter" stroke-miterlimit="10" stroke-dasharray="" stroke-dashoffset="0" style="mix-blend-mode: normal"><path d="M287.3125,211v-61.5h66.875v61.5z" fill="none" stroke-width="0"/><path d="M293.37881,164.43352h53.24238v32.01015c0,4.45296 -3.60982,8.0628 -8.0628,8.0628h-37.11679c-4.45296,0 -8.0628,-3.60983 -8.0628,-8.0628z" data-paper-data="{&quot;index&quot;:null}" fill="#181818" stroke-width="0"/><path d="M293.37881,164.05633c0,-4.45296 3.60983,-8.0628 8.0628,-8.0628h37.11679c4.45299,0 8.0628,3.60983 8.0628,8.0628v32.01015h-53.24238z" fill="#181818" stroke-width="0"/><path d="M296.7162,166.42299h46.56758v27.99715c0,3.89472 -3.15727,7.052 -7.052,7.052h-32.46358c-3.89472,0 -7.052,-3.15728 -7.052,-7.052z" data-paper-data="{&quot;index&quot;:null}" fill="#212121" stroke-width="0"/><path d="M296.7162,166.18531c0,-3.89472 3.15728,-7.052 7.052,-7.052h32.46358c3.89472,0 7.052,3.15728 7.052,7.052v27.99715h-46.56758z" fill="#212121" stroke-width="0"/><text transform="translate(300.77561,185.16893) scale(0.42177,0.42177)" font-size="40" xml:space="preserve" fill="#ffffff" fill-rule="nonzero" stroke="none" stroke-width="1" stroke-linecap="butt" stroke-linejoin="miter" stroke-miterlimit="10" stroke-dasharray="" stroke-dashoffset="0" font-family="Sans Serif" font-weight="normal" text-anchor="start" style="mix-blend-mode: normal"><tspan x="0" dy="0">Back</tspan></text></g></g></svg>