<svg version="1.1" xmlns="http://www.w3.org/2000/svg" xmlns:xlink="http://www.w3.org/1999/xlink" width="69.87141" height="74.7819" viewBox="0,0,69.87141,74.7819"><g transform="translate(-284.92398,-142.60905)"><g data-paper-data="{&quot;isPaintingLayer&quot;:true}" fill-rule="nonzero" stroke-miterlimit="10" stroke-dasharray="" stroke-dashoffset="0" style="mix-blend-mode: normal"><path d="" data-paper-data="{&quot;index&quot;:null}" fill="#151515" stroke="none" stroke-width="0" stroke-linecap="butt" stroke-linejoin="miter"/><path d="" data-paper-data="{&quot;index&quot;:null}" fill="#000000" stroke="none" stroke-width="0" stroke-linecap="butt" stroke-linejoin="miter"/><path d="M354.73245,142.60905c0,0 0.06294,2.2292 0.06294,4.97906v64.82378c0,2.74987 -0.04434,4.97906 -0.04434,4.97906h-64.39955v-74.7819z" fill="#151515" stroke="none" stroke-width="0" stroke-linecap="butt" stroke-linejoin="miter"/><path d="M295.13418,142.60905v74.7819h-10.2102l0.29137,-74.7819z" data-paper-data="{&quot;index&quot;:null}" fill="#000000" stroke="none" stroke-width="0" stroke-linecap="butt" stroke-linejoin="miter"/><path d="M343.75605,166.66472v26.67056c0,2.94603 -2.38808,5.33411 -5.33411,5.33411h-26.67056c-2.94595,0 -5.33411,-2.38808 -5.33411,-5.33411v-26.67056c0,-2.94595 2.38816,-5.33411 5.33411,-5.33411h26.67056c2.94603,0 5.33411,2.38816 5.33411,5.33411z" fill="none" stroke="#ffffff" stroke-width="4" stroke-linecap="butt" stroke-linejoin="round"/><path d="M327.71818,174.4653v12.33684" fill="none" stroke="#ffffff" stroke-width="4" stroke-linecap="round" stroke-linejoin="miter"/><path d="M335.28322,175.74554v9.54359" fill="none" stroke="#ffffff" stroke-width="4" stroke-linecap="round" stroke-linejoin="miter"/></g></g></svg>