<svg version="1.1" xmlns="http://www.w3.org/2000/svg" xmlns:xlink="http://www.w3.org/1999/xlink" width="69.87141" height="74.7819" viewBox="0,0,69.87141,74.7819"><g transform="translate(-284.92398,-142.60905)"><g data-paper-data="{&quot;isPaintingLayer&quot;:true}" fill-rule="nonzero" stroke="none" stroke-linecap="butt" stroke-linejoin="miter" stroke-miterlimit="10" stroke-dasharray="" stroke-dashoffset="0" style="mix-blend-mode: normal"><path d="M354.73245,142.60905c0,0 0.06294,2.2292 0.06294,4.97906v64.82378c0,2.74987 -0.04434,4.97906 -0.04434,4.97906h-64.39955v-74.7819z" fill="#151515" stroke-width="0"/><path d="M295.13418,142.60905v74.7819h-10.2102l0.29137,-74.7819z" data-paper-data="{&quot;index&quot;:null}" fill="#000000" stroke-width="0"/><path d="M329.70536,160.17704l14.72396,7.36198v12.85919h-5.82743v19.42475h-27.19465v-19.42475h-5.82743v-12.85919l14.72396,-7.36198l1.41801,4.27344c0.4572,1.42159 1.77975,2.38552 3.27306,2.38552c1.49331,0 2.81588,-0.96393 3.27308,-2.38552zM331.95863,165.65482c-0.99052,3.00071 -3.7941,5.02765 -6.95407,5.02765c-3.15997,0 -5.96355,-2.02694 -6.95406,-5.02765v0l-8.58574,4.29287v6.56556h5.82743v19.42476h19.42475v-19.42476h5.82743v-6.56556l-8.58574,-4.27344v0z" fill="#ffffff" stroke-width="1"/><path d="M326.94704,180.39821v-3.88496h5.82743v3.88496z" fill="#ffffff" stroke-width="1"/></g></g></svg>